<svg width="24" height="24" viewBox="0 0 24 24" fill="none" xmlns="http://www.w3.org/2000/svg">
<path stroke="currentColor" d="M4 8.0005C3.83599 7.99627 3.7169 7.98678 3.60982 7.96548C2.81644 7.80766 2.19624 7.18747 2.03843 6.39409C2 6.20089 2 5.96856 2 5.50391C2 5.03925 2 4.80692 2.03843 4.61373C2.19624 3.82034 2.81644 3.20015 3.60982 3.04234C3.80302 3.00391 4.03534 3.00391 4.5 3.00391H19.5C19.9647 3.00391 20.197 3.00391 20.3902 3.04234C21.1836 3.20015 21.8038 3.82034 21.9616 4.61373C22 4.80692 22 5.03925 22 5.50391C22 5.96856 22 6.20089 21.9616 6.39409C21.8038 7.18747 21.1836 7.80766 20.3902 7.96548C20.2831 7.98678 20.164 7.99627 20 8.0005M10 13.0039H14M4 8.00391H20V16.2039C20 17.8841 20 18.7241 19.673 19.3659C19.3854 19.9304 18.9265 20.3893 18.362 20.6769C17.7202 21.0039 16.8802 21.0039 15.2 21.0039H8.8C7.11984 21.0039 6.27976 21.0039 5.63803 20.6769C5.07354 20.3893 4.6146 19.9304 4.32698 19.3659C4 18.7241 4 17.8841 4 16.2039V8.00391Z" stroke-width="2" stroke-linecap="round" stroke-linejoin="round"/>
</svg>
