<svg width="24" height="24" viewBox="0 0 24 24" fill="none" xmlns="http://www.w3.org/2000/svg">
<path stroke="currentColor" d="M2 5.00391C2 4.47347 2.21071 3.96477 2.58579 3.58969C2.96086 3.21462 3.46957 3.00391 4 3.00391H10V21.0039H4C3.46957 21.0039 2.96086 20.7932 2.58579 20.4181C2.21071 20.043 2 19.5343 2 19.0039V5.00391ZM14 3.00391H20C20.5304 3.00391 21.0391 3.21462 21.4142 3.58969C21.7893 3.96477 22 4.47347 22 5.00391V10.0039H14V3.00391ZM14 14.0039H22V19.0039C22 19.5343 21.7893 20.043 21.4142 20.4181C21.0391 20.7932 20.5304 21.0039 20 21.0039H14V14.0039Z" stroke-width="2" stroke-linecap="round" stroke-linejoin="round"/>
</svg>
