<svg width="24" height="24" viewBox="0 0 24 24" fill="none" xmlns="http://www.w3.org/2000/svg">
<path stroke="currentColor" d="M20 7.00391V6.80391C20 5.12375 20 4.28367 19.673 3.64193C19.3854 3.07745 18.9265 2.61851 18.362 2.33089C17.7202 2.00391 16.8802 2.00391 15.2 2.00391H8.8C7.11984 2.00391 6.27976 2.00391 5.63803 2.33089C5.07354 2.61851 4.6146 3.07745 4.32698 3.64193C4 4.28367 4 5.12375 4 6.80391V17.2039C4 18.8841 4 19.7241 4.32698 20.3659C4.6146 20.9304 5.07354 21.3893 5.63803 21.6769C6.27976 22.0039 7.11984 22.0039 8.8 22.0039H12.5M12.5 11.0039H8M11.5 15.0039H8M16 7.00391H8M18 18.0039V12.5039C18 11.6755 18.6716 11.0039 19.5 11.0039C20.3284 11.0039 21 11.6755 21 12.5039V18.0039C21 19.6608 19.6569 21.0039 18 21.0039C16.3431 21.0039 15 19.6608 15 18.0039V14.0039" stroke-width="2" stroke-linecap="round" stroke-linejoin="round"/>
</svg>
