<svg width="24" height="24" viewBox="0 0 24 24" fill="none" xmlns="http://www.w3.org/2000/svg">
<path stroke="currentColor" d="M14 11.0039H8M10 15.0039H8M16 7.00391H8M20 10.5039V6.80391C20 5.12375 20 4.28367 19.673 3.64193C19.3854 3.07745 18.9265 2.61851 18.362 2.33089C17.7202 2.00391 16.8802 2.00391 15.2 2.00391H8.8C7.11984 2.00391 6.27976 2.00391 5.63803 2.33089C5.07354 2.61851 4.6146 3.07745 4.32698 3.64193C4 4.28367 4 5.12375 4 6.80391V17.2039C4 18.8841 4 19.7241 4.32698 20.3659C4.6146 20.9304 5.07354 21.3893 5.63803 21.6769C6.27976 22.0039 7.11984 22.0039 8.8 22.0039H11.5M22 22.0039L20.5 20.5039M21.5 18.0039C21.5 19.9369 19.933 21.5039 18 21.5039C16.067 21.5039 14.5 19.9369 14.5 18.0039C14.5 16.0709 16.067 14.5039 18 14.5039C19.933 14.5039 21.5 16.0709 21.5 18.0039Z" stroke-width="2" stroke-linecap="round" stroke-linejoin="round"/>
</svg>
