<svg width="24" height="24" viewBox="0 0 24 24" fill="none" xmlns="http://www.w3.org/2000/svg">
    <path d="M22 12C22 17.5228 17.5228 22 12 22C6.47715 22 2 17.5228 2 12C2 6.47715 6.47715 2 12 2C17.5228 2 22 6.47715 22 12ZM8.69194 7.80806C8.44786 7.56398 8.05214 7.56398 7.80806 7.80806C7.56398 8.05214 7.56398 8.44786 7.80806 8.69194L11.1161 12L7.80806 15.3081C7.56398 15.5521 7.56398 15.9479 7.80806 16.1919C8.05214 16.436 8.44786 16.436 8.69194 16.1919L12 12.8839L15.3081 16.1919C15.5521 16.436 15.9479 16.436 16.1919 16.1919C16.436 15.9479 16.436 15.5521 16.1919 15.3081L12.8839 12L16.1919 8.69194C16.436 8.44786 16.436 8.05214 16.1919 7.80806C15.9479 7.56398 15.5521 7.56398 15.3081 7.80806L12 11.1161L8.69194 7.80806Z" fill="#BABABA" />
</svg>
