<svg width="51" height="12" viewBox="0 0 51 12" fill="none" xmlns="http://www.w3.org/2000/svg">
<path d="M3.25 9.18C2.654 9.18 2.15 9.03 1.738 8.73C1.326 8.426 1.014 8.016 0.802 7.5C0.59 6.98 0.484 6.398 0.484 5.754C0.484 5.098 0.59 4.514 0.802 4.002C1.018 3.486 1.334 3.08 1.75 2.784C2.166 2.488 2.678 2.34 3.286 2.34C3.878 2.34 4.386 2.49 4.81 2.79C5.234 3.09 5.558 3.498 5.782 4.014C6.01 4.53 6.124 5.11 6.124 5.754C6.124 6.402 6.01 6.984 5.782 7.5C5.554 8.016 5.226 8.426 4.798 8.73C4.37 9.03 3.854 9.18 3.25 9.18ZM0.334 9V0.36H1.222V4.122H1.126V9H0.334ZM3.16 8.358C3.612 8.358 3.988 8.244 4.288 8.016C4.588 7.788 4.812 7.478 4.96 7.086C5.112 6.69 5.188 6.246 5.188 5.754C5.188 5.266 5.114 4.826 4.966 4.434C4.818 4.042 4.592 3.732 4.288 3.504C3.988 3.276 3.606 3.162 3.142 3.162C2.69 3.162 2.314 3.272 2.014 3.492C1.718 3.712 1.496 4.018 1.348 4.41C1.2 4.798 1.126 5.246 1.126 5.754C1.126 6.254 1.2 6.702 1.348 7.098C1.496 7.49 1.72 7.798 2.02 8.022C2.32 8.246 2.7 8.358 3.16 8.358ZM8.04916 11.88L9.30316 8.478L9.32116 9.486L6.48316 2.52H7.41916L9.74716 8.346H9.36316L11.5112 2.52H12.4112L8.93116 11.88H8.04916ZM15.8556 9V0.36H21.2556V1.206H16.7376V4.194H20.5356V5.04H16.7376V8.154H21.2556V9H15.8556ZM22.8194 9V0.18H23.7014V9H22.8194ZM27.7982 9V1.206H24.7802V0.36H31.6982V1.206H28.6802V9H27.7982ZM34.4414 9.18C33.8094 9.18 33.2614 9.04 32.7974 8.76C32.3374 8.48 31.9794 8.086 31.7234 7.578C31.4674 7.07 31.3394 6.474 31.3394 5.79C31.3394 5.082 31.4654 4.47 31.7174 3.954C31.9694 3.438 32.3234 3.04 32.7794 2.76C33.2394 2.48 33.7814 2.34 34.4054 2.34C35.0454 2.34 35.5914 2.488 36.0434 2.784C36.4954 3.076 36.8374 3.496 37.0694 4.044C37.3014 4.592 37.4074 5.246 37.3874 6.006H36.4874V5.694C36.4714 4.854 36.2894 4.22 35.9414 3.792C35.5974 3.364 35.0934 3.15 34.4294 3.15C33.7334 3.15 33.1994 3.376 32.8274 3.828C32.4594 4.28 32.2754 4.924 32.2754 5.76C32.2754 6.576 32.4594 7.21 32.8274 7.662C33.1994 8.11 33.7254 8.334 34.4054 8.334C34.8694 8.334 35.2734 8.228 35.6174 8.016C35.9654 7.8 36.2394 7.49 36.4394 7.086L37.2614 7.404C37.0054 7.968 36.6274 8.406 36.1274 8.718C35.6314 9.026 35.0694 9.18 34.4414 9.18ZM31.9634 6.006V5.268H36.9134V6.006H31.9634ZM41.4069 9.18C40.7549 9.18 40.2029 9.034 39.7509 8.742C39.2989 8.45 38.9549 8.048 38.7189 7.536C38.4869 7.02 38.3669 6.428 38.3589 5.76C38.3669 5.08 38.4909 4.484 38.7309 3.972C38.9709 3.456 39.3169 3.056 39.7689 2.772C40.2209 2.484 40.7689 2.34 41.4129 2.34C42.0689 2.34 42.6389 2.5 43.1229 2.82C43.6109 3.14 43.9449 3.578 44.1249 4.134L43.2609 4.41C43.1089 4.022 42.8669 3.722 42.5349 3.51C42.2069 3.294 41.8309 3.186 41.4069 3.186C40.9309 3.186 40.5369 3.296 40.2249 3.516C39.9129 3.732 39.6809 4.034 39.5289 4.422C39.3769 4.81 39.2989 5.256 39.2949 5.76C39.3029 6.536 39.4829 7.16 39.8349 7.632C40.1869 8.1 40.7109 8.334 41.4069 8.334C41.8469 8.334 42.2209 8.234 42.5289 8.034C42.8409 7.83 43.0769 7.534 43.2369 7.146L44.1249 7.41C43.8849 7.986 43.5329 8.426 43.0689 8.73C42.6049 9.03 42.0509 9.18 41.4069 9.18ZM50.0434 9V5.694C50.0434 5.334 50.0094 5.004 49.9414 4.704C49.8734 4.4 49.7634 4.136 49.6114 3.912C49.4634 3.684 49.2694 3.508 49.0294 3.384C48.7934 3.26 48.5054 3.198 48.1654 3.198C47.8534 3.198 47.5774 3.252 47.3374 3.36C47.1014 3.468 46.9014 3.624 46.7374 3.828C46.5774 4.028 46.4554 4.272 46.3714 4.56C46.2874 4.848 46.2454 5.176 46.2454 5.544L45.6214 5.406C45.6214 4.742 45.7374 4.184 45.9694 3.732C46.2014 3.28 46.5214 2.938 46.9294 2.706C47.3374 2.474 47.8054 2.358 48.3334 2.358C48.7214 2.358 49.0594 2.418 49.3474 2.538C49.6394 2.658 49.8854 2.82 50.0854 3.024C50.2894 3.228 50.4534 3.462 50.5774 3.726C50.7014 3.986 50.7914 4.264 50.8474 4.56C50.9034 4.852 50.9314 5.144 50.9314 5.436V9H50.0434ZM45.3574 9V0.36H46.1554V5.238H46.2454V9H45.3574Z" fill="#59636D"/>
</svg>
