<svg width="91" height="16" viewBox="0 0 91 16" fill="none" xmlns="http://www.w3.org/2000/svg">
<g clip-path="url(#clip0_8309_27713)">
<mask id="mask0_8309_27713" style="mask-type:luminance" maskUnits="userSpaceOnUse" x="0" y="0" width="91" height="16">
<path d="M91 0H0V16H91V0Z" fill="white"/>
</mask>
<g mask="url(#mask0_8309_27713)">
<path fill-rule="evenodd" clip-rule="evenodd" d="M14.1183 6.7512C13.4947 9.07826 11.3034 10.81 8.71416 10.81H2.52859C2.00928 10.81 1.57491 10.5206 1.31525 10.123L0 8.10415H8.71659C9.74064 8.10415 10.6434 7.55591 11.1311 6.74885H5.17365C4.67133 6.74885 4.23696 6.48532 3.96032 6.06414L2.64264 4.04297H14.2955C16.3509 4.04297 18.1466 5.13238 19.0979 6.7465H14.1183V6.7512Z" fill="#156CE6"/>
<path fill-rule="evenodd" clip-rule="evenodd" d="M0 0H8.71659C10.772 0 12.575 1.09176 13.5432 2.70353H2.52616C1.98259 2.70353 1.57005 2.39765 1.28371 1.96L0 0Z" fill="#8BC97E"/>
<path d="M45.2031 2.80469H46.9479V7.06586L50.2142 2.80469H51.8231V9.59292H50.0783L50.0759 5.34351L46.8096 9.59292H45.2031V2.80469Z" fill="#156CE6"/>
<path d="M41.9771 8.26822V4.11763H39.7713V5.16704C39.7713 6.02586 39.7494 7.74351 39.0287 8.26587H41.9771V8.26822ZM36.6797 8.19528C38.2425 8.02586 38.0799 6.48704 38.0799 4.96469V2.80469H43.7122V8.26822H44.2897V9.59292H36.6797V8.19528Z" fill="#156CE6"/>
<path d="M24.8293 6.54822L24.1717 5.53645H27.0837C26.7973 4.71998 25.9941 4.12469 25.0574 4.12469H22.6211V2.80469H25.4238C27.3482 2.80469 28.9231 4.33175 28.9231 6.19763C28.9231 8.06351 27.3482 9.59057 25.4238 9.59057H22.6211V8.27057H25.0574C25.9965 8.27057 26.8022 7.67057 27.0861 6.84704H25.3996C25.1666 6.84704 24.9555 6.73645 24.8269 6.54351" fill="#156CE6"/>
<path d="M28.6406 8.23292C30.5092 8.23292 30.3272 6.54586 30.3272 4.94586V2.80469H35.9109V9.58822H34.1904V4.10586H32.004V5.14586C32.004 7.78351 31.6934 9.59057 28.6406 9.59057V8.23057V8.23292Z" fill="#156CE6"/>
<path d="M52.9141 9.59292H54.6516V6.85881H55.5349L57.6121 9.59292H59.7087L57.134 6.19763L59.7087 2.80469H57.6121L55.5349 5.53881H54.6516V2.80469H52.9141V9.58822" fill="#156CE6"/>
<path d="M81.5243 6.8517H78.4958V9.58111H76.7656V2.81641H78.4958V5.53641H81.5243V2.81641H83.257V9.58111H81.5243V6.8517Z" fill="#156CE6"/>
<path d="M84.3438 9.57876H86.0763V6.85405H86.9572L89.0271 9.58111H91.1165L88.5491 6.19758L91.1165 2.81641H89.0271L86.9572 5.54346H86.0763V2.81876H84.3438V9.58111" fill="#156CE6"/>
<path d="M74.3924 9.59057L72.4292 4.14586L71.4489 6.85881H73.3829L72.7301 7.8541C72.6112 8.05175 72.3904 8.18586 72.138 8.18586H70.9684L70.4636 9.59057H68.7383L71.1844 2.80469H73.6668L76.1129 9.59057H74.3876H74.3924Z" fill="#156CE6"/>
<path fill-rule="evenodd" clip-rule="evenodd" d="M64.4104 6.85645H66.4076C66.8104 6.85645 67.138 7.17645 67.138 7.56469C67.138 7.95292 66.808 8.27292 66.4076 8.27292H64.4104V6.85645ZM62.6875 2.80469H68.0529V4.12469H64.408V5.55528H66.6308C67.7762 5.55528 68.7129 6.46351 68.7129 7.5741C68.7129 8.68469 67.7762 9.59292 66.6308 9.59292H62.6875C62.6875 7.33175 62.6875 5.06822 62.6875 2.80704V2.80469Z" fill="#156CE6"/>
</g>
<path d="M22.5284 15V10.6364H24.0028C24.3452 10.6364 24.625 10.6982 24.8423 10.8217C25.0611 10.9439 25.223 11.1094 25.3281 11.3182C25.4332 11.527 25.4858 11.7599 25.4858 12.017C25.4858 12.2741 25.4332 12.5078 25.3281 12.718C25.2244 12.9283 25.0639 13.0959 24.8466 13.2209C24.6293 13.3445 24.3509 13.4062 24.0114 13.4062H22.9545V12.9375H23.9943C24.2287 12.9375 24.4169 12.897 24.5589 12.8161C24.701 12.7351 24.804 12.6257 24.8679 12.4879C24.9332 12.3487 24.9659 12.1918 24.9659 12.017C24.9659 11.8423 24.9332 11.6861 24.8679 11.5483C24.804 11.4105 24.7003 11.3026 24.5568 11.2244C24.4134 11.1449 24.223 11.1051 23.9858 11.1051H23.0568V15H22.5284ZM28.9023 15L27.4023 12.9972H26.8654V15H26.337V10.6364H26.8654V12.5284H27.0955L28.8427 10.6364H29.4734L27.7092 12.554L29.533 15H28.9023ZM33.6926 12.8182C33.6926 13.2784 33.6096 13.6761 33.4434 14.0114C33.2772 14.3466 33.0492 14.6051 32.7594 14.7869C32.4696 14.9688 32.1387 15.0597 31.7665 15.0597C31.3944 15.0597 31.0634 14.9688 30.7736 14.7869C30.4838 14.6051 30.2559 14.3466 30.0897 14.0114C29.9235 13.6761 29.8404 13.2784 29.8404 12.8182C29.8404 12.358 29.9235 11.9602 30.0897 11.625C30.2559 11.2898 30.4838 11.0312 30.7736 10.8494C31.0634 10.6676 31.3944 10.5767 31.7665 10.5767C32.1387 10.5767 32.4696 10.6676 32.7594 10.8494C33.0492 11.0312 33.2772 11.2898 33.4434 11.625C33.6096 11.9602 33.6926 12.358 33.6926 12.8182ZM33.1813 12.8182C33.1813 12.4403 33.1181 12.1214 32.9917 11.8615C32.8667 11.6016 32.6969 11.4048 32.4824 11.2713C32.2694 11.1378 32.0307 11.071 31.7665 11.071C31.5023 11.071 31.263 11.1378 31.0485 11.2713C30.8354 11.4048 30.6657 11.6016 30.5392 11.8615C30.4142 12.1214 30.3517 12.4403 30.3517 12.8182C30.3517 13.196 30.4142 13.5149 30.5392 13.7749C30.6657 14.0348 30.8354 14.2315 31.0485 14.3651C31.263 14.4986 31.5023 14.5653 31.7665 14.5653C32.0307 14.5653 32.2694 14.4986 32.4824 14.3651C32.6969 14.2315 32.8667 14.0348 32.9917 13.7749C33.1181 13.5149 33.1813 13.196 33.1813 12.8182Z" fill="#6C6C6C"/>
</g>
<defs>
<clipPath id="clip0_8309_27713">
<rect width="91" height="16" fill="white"/>
</clipPath>
</defs>
</svg>
