<svg width="182" height="33" viewBox="0 0 182 33" fill="none" xmlns="http://www.w3.org/2000/svg">
<g clip-path="url(#clip0_8309_27695)">
<mask id="mask0_8309_27695" style="mask-type:luminance" maskUnits="userSpaceOnUse" x="0" y="0" width="182" height="34">
<path d="M182 0H0V33.0027H182V0Z" fill="white"/>
</mask>
<g mask="url(#mask0_8309_27695)">
<path fill-rule="evenodd" clip-rule="evenodd" d="M28.2367 13.9221C26.9894 18.7221 22.6068 22.2941 17.4283 22.2941H5.05717C4.01856 22.2941 3.14981 21.6972 2.63051 20.877L0 16.7128H17.4332C19.4813 16.7128 21.2867 15.582 22.2622 13.9173H10.3473C9.34267 13.9173 8.47392 13.3737 7.92064 12.505L5.28528 8.33594H28.591C32.7018 8.33594 36.2932 10.583 38.1957 13.9124H28.2367V13.9221Z" fill="#156CE6"/>
<path fill-rule="evenodd" clip-rule="evenodd" d="M0 0H17.4332C21.5439 0 25.15 2.25195 27.0865 5.57648H5.05232C3.96517 5.57648 3.14011 4.94555 2.56741 4.04283L0 0Z" fill="#8BC97E"/>
<path d="M90.4102 5.78516H93.8997V14.5745L100.432 5.78516H103.65V19.787H100.161L100.156 11.0219L93.6231 19.787H90.4102V5.78516Z" fill="#156CE6"/>
<path d="M83.9503 17.0546V8.49332H79.5386V10.6579C79.5386 12.4294 79.4949 15.9723 78.0535 17.0497H83.9503V17.0546ZM73.3555 16.9041C76.481 16.5547 76.1558 13.3806 76.1558 10.2405V5.78516H87.4204V17.0546H88.5755V19.787H73.3555V16.9041Z" fill="#156CE6"/>
<path d="M49.6586 13.5068L48.3435 11.4199H54.1674C53.5947 9.73577 51.9882 8.50788 50.1148 8.50788H45.2422V5.78516H50.8477C54.6964 5.78516 57.8462 8.93497 57.8462 12.7837C57.8462 16.6324 54.6964 19.7822 50.8477 19.7822H45.2422V17.0594H50.1148C51.9931 17.0594 53.6044 15.8218 54.1722 14.1232H50.7992C50.3332 14.1232 49.911 13.8951 49.6538 13.4971" fill="#156CE6"/>
<path d="M57.2773 16.9818C61.0144 16.9818 60.6504 13.502 60.6504 10.2017V5.78516H71.8179V19.7773H68.3769V8.46905H64.0041V10.6142C64.0041 16.0548 63.3828 19.7822 57.2773 19.7822V16.9769V16.9818Z" fill="#156CE6"/>
<path d="M105.832 19.7831H109.307V14.1435H111.074L115.228 19.7831H119.421L114.272 12.7798L119.421 5.78125H115.228L111.074 11.4208H109.307V5.78125H105.832V19.7734" fill="#156CE6"/>
<path d="M163.049 14.1321H156.992V19.7619H153.531V5.80859H156.992V11.419H163.049V5.80859H166.514V19.7619H163.049V14.1321Z" fill="#156CE6"/>
<path d="M168.691 19.7571H172.157V14.1369H173.918L178.058 19.7619H182.237L177.102 12.7828L182.237 5.80859H178.058L173.918 11.4336H172.157V5.81345H168.691V19.7619" fill="#156CE6"/>
<path d="M148.785 19.7861L144.858 8.55546L142.898 14.1514H146.766L145.46 16.2043C145.222 16.612 144.781 16.8886 144.276 16.8886H141.937L140.927 19.7861H137.477L142.369 5.78906H147.334L152.226 19.7861H148.775H148.785Z" fill="#156CE6"/>
<path fill-rule="evenodd" clip-rule="evenodd" d="M128.821 14.1426H132.815C133.621 14.1426 134.276 14.8026 134.276 15.6034C134.276 16.4042 133.616 17.0643 132.815 17.0643H128.821V14.1426ZM125.375 5.78516H136.106V8.50788H128.816V11.4587H133.262C135.552 11.4587 137.426 13.3321 137.426 15.6229C137.426 17.9136 135.552 19.787 133.262 19.787H125.375C125.375 15.123 125.375 10.4541 125.375 5.79001V5.78516Z" fill="#156CE6"/>
</g>
<path d="M45.9688 31V23H48.6719C49.2995 23 49.8125 23.1133 50.2109 23.3398C50.612 23.5638 50.9089 23.8672 51.1016 24.25C51.2943 24.6328 51.3906 25.0599 51.3906 25.5312C51.3906 26.0026 51.2943 26.431 51.1016 26.8164C50.9115 27.2018 50.6172 27.5091 50.2188 27.7383C49.8203 27.9648 49.3099 28.0781 48.6875 28.0781H46.75V27.2188H48.6563C49.0859 27.2188 49.431 27.1445 49.6914 26.9961C49.9518 26.8477 50.1406 26.6471 50.2578 26.3945C50.3776 26.1393 50.4375 25.8516 50.4375 25.5312C50.4375 25.2109 50.3776 24.9245 50.2578 24.6719C50.1406 24.4193 49.9505 24.2214 49.6875 24.0781C49.4245 23.9323 49.0755 23.8594 48.6406 23.8594H46.9375V31H45.9688ZM57.6543 31L54.9043 27.3281H53.9199V31H52.9512V23H53.9199V26.4687H54.3418L57.5449 23H58.7012L55.4668 26.5156L58.8105 31H57.6543ZM66.4365 27C66.4365 27.8437 66.2842 28.5729 65.9795 29.1875C65.6748 29.8021 65.2568 30.276 64.7256 30.6094C64.1943 30.9427 63.5876 31.1094 62.9053 31.1094C62.223 31.1094 61.6162 30.9427 61.085 30.6094C60.5537 30.276 60.1357 29.8021 59.8311 29.1875C59.5264 28.5729 59.374 27.8437 59.374 27C59.374 26.1562 59.5264 25.4271 59.8311 24.8125C60.1357 24.1979 60.5537 23.724 61.085 23.3906C61.6162 23.0573 62.223 22.8906 62.9053 22.8906C63.5876 22.8906 64.1943 23.0573 64.7256 23.3906C65.2568 23.724 65.6748 24.1979 65.9795 24.8125C66.2842 25.4271 66.4365 26.1562 66.4365 27ZM65.499 27C65.499 26.3073 65.3831 25.7227 65.1514 25.2461C64.9222 24.7695 64.611 24.4089 64.2178 24.1641C63.8271 23.9193 63.3896 23.7969 62.9053 23.7969C62.4209 23.7969 61.9821 23.9193 61.5889 24.1641C61.1982 24.4089 60.887 24.7695 60.6553 25.2461C60.4261 25.7227 60.3115 26.3073 60.3115 27C60.3115 27.6927 60.4261 28.2773 60.6553 28.7539C60.887 29.2305 61.1982 29.5911 61.5889 29.8359C61.9821 30.0807 62.4209 30.2031 62.9053 30.2031C63.3896 30.2031 63.8271 30.0807 64.2178 29.8359C64.611 29.5911 64.9222 29.2305 65.1514 28.7539C65.3831 28.2773 65.499 27.6927 65.499 27Z" fill="#6C6C6C"/>
</g>
<defs>
<clipPath id="clip0_8309_27695">
<rect width="182" height="33" fill="white"/>
</clipPath>
</defs>
</svg>
