<svg width="20" height="20" viewBox="0 0 20 20" fill="none" xmlns="http://www.w3.org/2000/svg">
<path d="M9.33398 0.836012C8.40057 0.836012 7.81884 0.7926 7.2002 1.10782C6.72987 1.34745 6.34608 1.73125 6.10645 2.20157C5.81575 2.77208 5.8519 3.35669 5.85579 4.16934H4.16797H2.5013C2.28029 4.16934 2.06833 4.25714 1.91205 4.41342C1.75577 4.5697 1.66797 4.78166 1.66797 5.00268C1.66797 5.22369 1.75577 5.43565 1.91205 5.59193C2.06833 5.74821 2.28029 5.83601 2.5013 5.83601H3.33464V14.3354C3.33464 15.7355 3.2916 16.5528 3.69759 17.3497C4.01713 17.9768 4.52719 18.4869 5.1543 18.8064C5.9512 19.2125 6.76849 19.1693 8.16862 19.1693H11.834C13.2341 19.1693 14.0514 19.2124 14.8483 18.8064C15.4754 18.4869 15.9855 17.9768 16.305 17.3497C16.711 16.5528 16.668 15.7355 16.668 14.3354V5.83601H17.5013C17.7223 5.83601 17.9343 5.74821 18.0906 5.59193C18.2468 5.43565 18.3346 5.22369 18.3346 5.00268C18.3346 4.78166 18.2468 4.5697 18.0906 4.41342C17.9343 4.25714 17.7223 4.16934 17.5013 4.16934H15.8346H14.1468C14.1507 3.35669 14.1869 2.77209 13.8962 2.20157C13.6565 1.73115 13.2727 1.34744 12.8024 1.10782C12.1837 0.792575 11.602 0.836012 10.6686 0.836012H9.33398ZM9.33398 2.50268H10.6686C11.602 2.50268 11.9512 2.54575 12.0456 2.59382C12.2025 2.67377 12.3303 2.80161 12.4102 2.95841C12.4524 3.04141 12.4813 3.46794 12.4899 4.16934H7.5127C7.52128 3.46794 7.55015 3.04141 7.59245 2.95841C7.67238 2.80152 7.80014 2.67376 7.95703 2.59382C8.05142 2.54573 8.40057 2.50268 9.33398 2.50268ZM5.0013 5.83601H6.66797H13.3346H15.0013V14.3354C15.0013 15.7355 14.958 16.3201 14.819 16.5928C14.6592 16.9065 14.4052 17.1606 14.0915 17.3204C13.8187 17.4594 13.2341 17.5027 11.834 17.5027H8.16862C6.76849 17.5027 6.18378 17.4593 5.91113 17.3204C5.59742 17.1606 5.34342 16.9065 5.18359 16.5928C5.04462 16.3201 5.0013 15.7355 5.0013 14.3354V5.83601ZM8.33464 8.75268C8.11362 8.75268 7.90166 8.84048 7.74538 8.99676C7.5891 9.15304 7.5013 9.365 7.5013 9.58601V13.7527C7.5013 13.9737 7.5891 14.1857 7.74538 14.3419C7.90166 14.4982 8.11362 14.586 8.33464 14.586C8.55565 14.586 8.76761 14.4982 8.92389 14.3419C9.08017 14.1857 9.16797 13.9737 9.16797 13.7527V9.58601C9.16797 9.365 9.08017 9.15304 8.92389 8.99676C8.76761 8.84048 8.55565 8.75268 8.33464 8.75268ZM11.668 8.75268C11.447 8.75268 11.235 8.84048 11.0787 8.99676C10.9224 9.15304 10.8346 9.365 10.8346 9.58601V13.7527C10.8346 13.9737 10.9224 14.1857 11.0787 14.3419C11.235 14.4982 11.447 14.586 11.668 14.586C11.889 14.586 12.1009 14.4982 12.2572 14.3419C12.4135 14.1857 12.5013 13.9737 12.5013 13.7527V9.58601C12.5013 9.365 12.4135 9.15304 12.2572 8.99676C12.1009 8.84048 11.889 8.75268 11.668 8.75268Z" fill="#F44B57"/>
</svg>
